M48
; DRILL file {KiCad 9.0.8-9.0.8~ubuntu24.04.1} date 2026-03-27T09:30:35+0700
; FORMAT={-:-/ absolute / metric / decimal}
; #@! TF.CreationDate,2026-03-27T09:30:35+07:00
; #@! TF.GenerationSoftware,Kicad,Pcbnew,9.0.8-9.0.8~ubuntu24.04.1
; #@! TF.FileFunction,Plated,1,2,PTH
FMAT,2
METRIC
; #@! TA.AperFunction,Plated,PTH,ComponentDrill
T1C1.000
; #@! TA.AperFunction,Plated,PTH,ComponentDrill
T2C1.500
%
G90
G05
T1
X85.193Y-90.117
X85.193Y-105.367
X87.733Y-90.117
X87.733Y-105.367
X90.273Y-90.117
X90.273Y-105.367
X92.813Y-90.117
X92.813Y-105.367
X95.353Y-90.117
X95.353Y-105.367
X97.893Y-90.117
X97.893Y-105.367
X100.433Y-90.117
X100.433Y-105.367
T2
X86.691Y-95.222
X89.231Y-101.572
X105.983Y-95.222
X108.523Y-101.572
X125.299Y-95.222
X127.84Y-101.572
X144.582Y-95.267
X147.123Y-101.617
M30
